<?xml version="1.0" standalone="no"?>
<!DOCTYPE svg PUBLIC "-//W3C//DTD SVG 20010904//EN"
 "http://www.w3.org/TR/2001/REC-SVG-20010904/DTD/svg10.dtd">
<svg version="1.0" xmlns="http://www.w3.org/2000/svg"
 width="1068.000000pt" height="1005.000000pt" viewBox="0 0 1068.000000 1005.000000"
 preserveAspectRatio="xMidYMid meet">

<g transform="translate(0.000000,1005.000000) scale(0.100000,-0.100000)"
fill="#000000" stroke="none">
<path d="M825 9999 c-79 -11 -216 -54 -285 -89 -128 -65 -271 -194 -359 -322
-45 -68 -108 -203 -126 -273 -8 -33 -20 -109 -25 -170 -16 -165 -8 -6822 8
-6890 49 -211 130 -354 273 -489 165 -156 293 -220 499 -251 142 -22 5187 -22
5330 0 206 31 357 109 519 268 113 111 199 256 243 412 l23 80 3 2700 2 2700
-1167 1167 -1168 1168 -1855 -1 c-1020 -1 -1882 -5 -1915 -10z m4945 -2186
l145 -143 -823 0 -822 0 0 817 0 817 678 -674 c372 -370 742 -738 822 -817z
m-1940 -843 l0 -200 450 0 450 0 0 -355 0 -355 -900 0 -900 0 0 -320 0 -319
768 -3 767 -3 66 -31 c73 -35 129 -85 158 -142 41 -81 42 -115 39 -897 l-3
-750 -23 -51 c-38 -85 -129 -158 -227 -184 -23 -6 -166 -10 -342 -10 l-303 0
0 -200 0 -200 -360 0 -360 0 0 200 0 200 -450 0 -450 0 0 355 0 355 900 0 900
0 0 320 0 320 -716 0 -716 0 -130 47 c-72 25 -139 56 -150 67 -11 12 -35 50
-52 86 l-31 65 0 770 0 770 28 61 c35 76 94 135 172 171 l60 28 318 3 317 3 0
200 0 199 360 0 360 0 0 -200z"/>
<path d="M8380 6890 l0 -630 -625 0 -625 0 0 -320 0 -320 625 0 625 0 0 -630
0 -630 320 0 320 0 0 630 0 630 630 0 630 0 0 320 0 320 -630 0 -630 0 0 630
0 630 -320 0 -320 0 0 -630z"/>
</g>
</svg>
